<?xml version="1.0" encoding="utf-8"?>
<!-- Generator: Adobe Illustrator 23.0.3, SVG Export Plug-In . SVG Version: 6.00 Build 0)  -->
<svg version="1.1" id="Calque_1" xmlns="http://www.w3.org/2000/svg" xmlns:xlink="http://www.w3.org/1999/xlink" x="0px" y="0px"
	 viewBox="0 0 798 454" style="enable-background:new 0 0 798 454;" xml:space="preserve">
<style type="text/css">
	.st0{fill:#F5A833;}
	.st1{enable-background:new    ;}
</style>
<g>
	<path class="st0" d="M29.3,284.5c9.2,32,16.7,41.7,20,47.7s23.8,26.1,23.8,26.1s51.3,43.8,103.3,31.5s67.8-30.3,67.8-30.3
		c9-4.8,41.5-39.5,41.5-39.5l-49.2-56c0,0-37,43.3-60.8,48.8c-23.8,5.5-38-5-38-5s-22.3-8.3-29-34.8s3.5-41.8,3.5-41.8
		s1-3.7,16.5-19.7s43-12,43-12c-16-9.8-20.8-11-20.8-11c-33.3-12.3-63.3-4-63.3-4S53.7,190,37,230.7C37,230.7,23.2,265.4,29.3,284.5
		z"/>
	<path class="st0" d="M30.8,229.5c0,0,5.5-37,53.5-56s95,17.5,95,17.5l30.8,29c0,0,89.7,103,120.7,133s63.5,34.5,63.5,34.5
		s35.5,9.5,76.5-5.5s55.5-39,55.5-39s29-34,30-74.5c0,0-9.3,28.8-31.5,40.3c-22.2,11.5-36.8,21.3-90,14.5c0,0-19.8-4.3-33.8-12.8
		s-33.3-27.3-33.3-27.3s-19.3-18.8-37-40.8s-45.3-56.8-45.3-56.8s-52.2-54.3-106.5-60.5s-90,18.8-90,18.8S37.3,176.3,30.8,229.5z"/>
	<path class="st0" d="M299.3,188.5l49.5,62c0,0,43.5-53.5,74-51s38.5,16.5,38.5,16.5s16.5,16.2,17.5,41.4s-21.9,47.7-39,55.1
		c0,0,36.9,7.7,70.5-6.5c33.6-14.2,47-52,46-67.5c0,0-42.7-3.2-55.7-39.2s4-48.7,2-50s-34.3-27.8-90.7-25.1
		C355.7,127,300.3,182.7,299.3,188.5z"/>
</g>
<g class="st1">
	<path class="st0" d="M523.3,209c-0.5,0-0.9-0.5-0.9-1v-50.8c0-0.3,0.3-0.7,0.6-0.7h12c0.5,0,0.8,0.3,0.8,0.7v50.9
		c0,0.4-0.3,0.9-0.8,0.9L523.3,209L523.3,209z"/>
	<path class="st0" d="M538.6,157.4c0-0.5,0.4-0.9,0.8-0.9h11.8c0.5,0,0.8,0.3,1,0.8l4.2,15.8c0.1,0.6,0.3,0.8,0.5,0.8
		s0.4-0.3,0.4-0.9v-15.6c0-0.5,0.3-0.9,0.8-0.9h10.5c0.6,0,0.9,0.5,0.9,1v50.6c0,0.5-0.3,0.9-0.8,0.9h-13.1c-0.3,0-0.7-0.3-0.8-0.7
		l-3.1-12.6c-0.1-0.7-0.4-1-0.6-1s-0.4,0.3-0.4,1v12.4c0,0.5-0.4,0.9-0.9,0.9h-10.6c-0.4,0-0.7-0.4-0.7-1L538.6,157.4L538.6,157.4z"
		/>
	<path class="st0" d="M572.4,157.5c0-0.5,0.3-1,0.8-1h25.2c0.5,0,0.8,0.4,0.8,0.8v12.2c0,0.5-0.4,0.9-0.9,0.9H587
		c-0.4,0-0.8,0.3-0.8,0.8v4.2c0,0.4,0.2,0.6,0.7,0.6h5.3c0.3,0,0.8,0.3,0.8,0.7v12.7c0,0.4-0.3,0.8-0.8,0.8h-5.3
		c-0.3,0-0.7,0.5-0.7,0.9v17c0,0.6-0.4,1-0.9,1h-12.2c-0.4,0-0.8-0.4-0.8-0.9L572.4,157.5L572.4,157.5z"/>
	<path class="st0" d="M602.7,209c-0.5,0-0.9-0.5-0.9-1v-50.8c0-0.3,0.3-0.7,0.6-0.7h12c0.5,0,0.8,0.3,0.8,0.7v50.9
		c0,0.4-0.3,0.9-0.8,0.9L602.7,209L602.7,209z"/>
	<path class="st0" d="M618,157.4c0-0.5,0.4-0.9,0.8-0.9h11.8c0.5,0,0.8,0.3,1,0.8l4.2,15.8c0.1,0.6,0.3,0.8,0.5,0.8s0.4-0.3,0.4-0.9
		v-15.6c0-0.5,0.3-0.9,0.8-0.9H648c0.6,0,0.9,0.5,0.9,1v50.6c0,0.5-0.3,0.9-0.8,0.9H635c-0.3,0-0.7-0.3-0.8-0.7l-3.1-12.6
		c-0.1-0.7-0.4-1-0.6-1c-0.2,0-0.4,0.3-0.4,1v12.4c0,0.5-0.4,0.9-0.9,0.9h-10.6c-0.4,0-0.7-0.4-0.7-1v-50.6H618z"/>
	<path class="st0" d="M652.7,209c-0.5,0-0.9-0.5-0.9-1v-50.8c0-0.3,0.3-0.7,0.6-0.7h12c0.5,0,0.8,0.3,0.8,0.7v50.9
		c0,0.4-0.4,0.9-0.8,0.9L652.7,209L652.7,209z"/>
	<path class="st0" d="M677.4,209c-0.5,0-1-0.4-1-1v-36.5c0-0.5-0.4-0.8-0.9-0.8h-7c-0.4,0-0.9-0.6-0.9-1v-12.5
		c0-0.4,0.2-0.7,0.6-0.7h30c0.5,0,0.9,0.3,0.9,0.8v12.3c0,0.6-0.4,1-1,1h-7c-0.5,0-0.8,0.4-0.8,1v36.5c0,0.5-0.4,0.9-1,0.9H677.4z"
		/>
	<path class="st0" d="M701.6,157.4c0-0.4,0.4-0.9,0.9-0.9h24.9c0.4,0,0.7,0.4,0.7,0.8v12.6c0,0.4-0.3,0.7-0.8,0.7h-11.7
		c-0.3,0-0.5,0.2-0.5,0.5v3.9c0,0.3,0.3,0.5,0.5,0.5h5.5c0.3,0,0.5,0.2,0.5,0.5v12.7c0,0.3-0.3,0.6-0.6,0.6h-5.7
		c-0.3,0-0.5,0.2-0.5,0.6v4.1c0,0.3,0.2,0.5,0.4,0.5h12.1c0.5,0,0.8,0.3,0.8,0.7v13c0,0.4-0.4,0.8-0.8,0.8h-25.1
		c-0.4,0-0.8-0.4-0.8-0.9v-50.7H701.6z"/>
</g>
</svg>
