<?xml version="1.0" encoding="utf-8"?>
<!-- Generator: Adobe Illustrator 23.0.3, SVG Export Plug-In . SVG Version: 6.00 Build 0)  -->
<svg version="1.1" id="Calque_1" xmlns="http://www.w3.org/2000/svg" xmlns:xlink="http://www.w3.org/1999/xlink" x="0px" y="0px"
	 viewBox="0 0 798 454" style="enable-background:new 0 0 798 454;" xml:space="preserve">
<style type="text/css">
	.st0{fill:url(#SVGID_1_);}
	.st1{fill:url(#SVGID_2_);}
	.st2{fill:url(#SVGID_3_);}
	.st3{fill:url(#SVGID_4_);}
	.st4{fill:url(#SVGID_5_);}
	.st5{fill:url(#SVGID_6_);}
	.st6{fill:url(#SVGID_7_);}
	.st7{fill:url(#SVGID_8_);}
	.st8{fill:url(#SVGID_9_);}
	.st9{fill:url(#SVGID_10_);}
	.st10{fill:url(#SVGID_11_);}
	.st11{fill:url(#SVGID_12_);}
	.st12{fill:url(#SVGID_13_);}
	.st13{fill:url(#SVGID_14_);}
	.st14{fill:url(#SVGID_15_);}
</style>
<g>
	<linearGradient id="SVGID_1_" gradientUnits="userSpaceOnUse" x1="27.3" y1="154.25" x2="58.3" y2="154.25">
		<stop  offset="0" style="stop-color:#F5A833"/>
		<stop  offset="1" style="stop-color:#F5A833"/>
	</linearGradient>
	<path class="st0" d="M42.8,188L42.8,188c-8.6,0-15.5-6.9-15.5-15.5V136c0-8.6,6.9-15.5,15.5-15.5l0,0c8.6,0,15.5,6.9,15.5,15.5
		v36.5C58.3,181.1,51.3,188,42.8,188z"/>
	<linearGradient id="SVGID_2_" gradientUnits="userSpaceOnUse" x1="116.3" y1="133" x2="147.3" y2="133">
		<stop  offset="0" style="stop-color:#F5A833"/>
		<stop  offset="1" style="stop-color:#F5A833"/>
	</linearGradient>
	<path class="st1" d="M131.8,188L131.8,188c-8.6,0-15.5-6.9-15.5-15.5v-79c0-8.6,6.9-15.5,15.5-15.5l0,0c8.6,0,15.5,6.9,15.5,15.5
		v79C147.3,181.1,140.3,188,131.8,188z"/>
	<linearGradient id="SVGID_3_" gradientUnits="userSpaceOnUse" x1="294.3" y1="133" x2="325.3" y2="133">
		<stop  offset="0" style="stop-color:#F5A833"/>
		<stop  offset="1" style="stop-color:#F5A833"/>
	</linearGradient>
	<path class="st2" d="M309.8,188L309.8,188c-8.6,0-15.5-6.9-15.5-15.5v-79c0-8.6,6.9-15.5,15.5-15.5l0,0c8.6,0,15.5,6.9,15.5,15.5
		v79C325.3,181.1,318.3,188,309.8,188z"/>
	<linearGradient id="SVGID_4_" gradientUnits="userSpaceOnUse" x1="205.3" y1="119" x2="236.3" y2="119">
		<stop  offset="0" style="stop-color:#F5A833"/>
		<stop  offset="1" style="stop-color:#F5A833"/>
	</linearGradient>
	<path class="st3" d="M220.8,221L220.8,221c-8.6,0-15.5-6.9-15.5-15.5v-173c0-8.6,6.9-15.5,15.5-15.5l0,0c8.6,0,15.5,6.9,15.5,15.5
		v173C236.3,214.1,229.3,221,220.8,221z"/>
	<linearGradient id="SVGID_5_" gradientUnits="userSpaceOnUse" x1="382.7" y1="154.25" x2="413.7" y2="154.25">
		<stop  offset="0" style="stop-color:#F5A833"/>
		<stop  offset="1" style="stop-color:#F5A833"/>
	</linearGradient>
	<path class="st4" d="M398.2,188L398.2,188c-8.6,0-15.5-6.9-15.5-15.5V136c0-8.6,6.9-15.5,15.5-15.5l0,0c8.6,0,15.5,6.9,15.5,15.5
		v36.5C413.7,181.1,406.8,188,398.2,188z"/>
	<linearGradient id="SVGID_6_" gradientUnits="userSpaceOnUse" x1="739.7" y1="154.25" x2="770.7" y2="154.25">
		<stop  offset="0" style="stop-color:#F5A833"/>
		<stop  offset="1" style="stop-color:#F5A833"/>
	</linearGradient>
	<path class="st5" d="M755.2,188L755.2,188c-8.6,0-15.5-6.9-15.5-15.5V136c0-8.6,6.9-15.5,15.5-15.5l0,0c8.6,0,15.5,6.9,15.5,15.5
		v36.5C770.7,181.1,763.8,188,755.2,188z"/>
	<linearGradient id="SVGID_7_" gradientUnits="userSpaceOnUse" x1="471.7" y1="133" x2="502.7" y2="133">
		<stop  offset="0" style="stop-color:#F5A833"/>
		<stop  offset="1" style="stop-color:#F5A833"/>
	</linearGradient>
	<path class="st6" d="M487.2,188L487.2,188c-8.6,0-15.5-6.9-15.5-15.5v-79c0-8.6,6.9-15.5,15.5-15.5l0,0c8.6,0,15.5,6.9,15.5,15.5
		v79C502.7,181.1,495.8,188,487.2,188z"/>
	<linearGradient id="SVGID_8_" gradientUnits="userSpaceOnUse" x1="649.7" y1="133" x2="680.7" y2="133">
		<stop  offset="0" style="stop-color:#F5A833"/>
		<stop  offset="1" style="stop-color:#F5A833"/>
	</linearGradient>
	<path class="st7" d="M665.2,188L665.2,188c-8.6,0-15.5-6.9-15.5-15.5v-79c0-8.6,6.9-15.5,15.5-15.5l0,0c8.6,0,15.5,6.9,15.5,15.5
		v79C680.7,181.1,673.8,188,665.2,188z"/>
	<linearGradient id="SVGID_9_" gradientUnits="userSpaceOnUse" x1="560.7" y1="119" x2="591.7" y2="119">
		<stop  offset="0" style="stop-color:#F5A833"/>
		<stop  offset="1" style="stop-color:#F5A833"/>
	</linearGradient>
	<path class="st8" d="M576.2,221L576.2,221c-8.6,0-15.5-6.9-15.5-15.5v-173c0-8.6,6.9-15.5,15.5-15.5l0,0c8.6,0,15.5,6.9,15.5,15.5
		v173C591.7,214.1,584.8,221,576.2,221z"/>
</g>
<g>
	<linearGradient id="SVGID_10_" gradientUnits="userSpaceOnUse" x1="131.2" y1="338.85" x2="199.9" y2="338.85">
		<stop  offset="0" style="stop-color:#F5A833"/>
		<stop  offset="1" style="stop-color:#F5A833"/>
	</linearGradient>
	<path class="st9" d="M166.8,401.5c-12,0-20.9-3-26.6-9.1c-5.7-6.1-8.7-16.2-9-30.3l25.2-3.3c0,4,0.2,7.4,0.7,10.1
		c0.4,2.7,1.1,4.8,1.9,6.3c0.8,1.4,1.7,2.5,2.7,3s2.1,0.9,3.3,0.9c3.3,0,5-2.4,5-7.2c0-4.7-1.1-8.7-3.2-12.1s-5.5-7.1-10.2-11.1
		l-7.7-6.5c-2.8-2.4-5.1-4.5-6.8-6.4c-1.8-1.9-3.6-4.1-5.4-6.8c-1.8-2.7-3.2-5.7-4.1-9c-0.9-3.3-1.3-6.9-1.3-10.9
		c0-10.5,3.2-18.6,9.5-24.3c6.3-5.7,15.1-8.6,26.2-8.6c19.9,0,30,11.8,30.1,35.4l-25.8,2.6c0-3.2,0-5.6-0.1-7.1
		c-0.1-1.6-0.3-3.2-0.6-4.9c-0.3-1.7-0.9-2.9-1.6-3.5c-0.8-0.7-1.8-1-3-1c-1.8,0-3.2,1-4.1,2.9c-0.9,1.9-1.4,3.7-1.4,5.6
		c0,1,0.1,2,0.3,3s0.3,1.8,0.5,2.6c0.1,0.8,0.5,1.6,1,2.5s0.9,1.6,1.1,2.2c0.2,0.5,0.7,1.2,1.5,2.1s1.2,1.5,1.5,1.8
		c0.2,0.3,0.8,1,1.8,1.8c0.9,0.9,1.5,1.4,1.7,1.6s0.8,0.7,1.9,1.7c1.1,1,1.7,1.5,1.8,1.6l7,6.2c3,2.7,5.5,5.2,7.6,7.5s4.1,5,6,8.1
		s3.3,6.4,4.3,10s1.4,7.5,1.4,11.6c0,8.7-3,16.1-9,22C184.5,398.5,176.6,401.5,166.8,401.5z"/>
	<linearGradient id="SVGID_11_" gradientUnits="userSpaceOnUse" x1="219.6" y1="338.9" x2="292.2" y2="338.9">
		<stop  offset="0" style="stop-color:#F5A833"/>
		<stop  offset="1" style="stop-color:#F5A833"/>
	</linearGradient>
	<path class="st10" d="M241.8,399.6V348l-22.2-69.8h28.1l9.6,32.5l8-32.5h26.9L270.4,348v51.6H241.8z"/>
	<linearGradient id="SVGID_12_" gradientUnits="userSpaceOnUse" x1="314.7" y1="338.85" x2="383.4" y2="338.85">
		<stop  offset="0" style="stop-color:#F5A833"/>
		<stop  offset="1" style="stop-color:#F5A833"/>
	</linearGradient>
	<path class="st11" d="M350.3,401.5c-12,0-20.9-3-26.6-9.1s-8.7-16.2-9-30.3l25.2-3.3c0,4,0.2,7.4,0.7,10.1c0.4,2.7,1.1,4.8,1.9,6.3
		c0.8,1.4,1.7,2.5,2.7,3s2.1,0.9,3.3,0.9c3.3,0,5-2.4,5-7.2c0-4.7-1.1-8.7-3.2-12.1s-5.5-7.1-10.2-11.1l-7.7-6.5
		c-2.8-2.4-5.1-4.5-6.8-6.4c-1.8-1.9-3.6-4.1-5.4-6.8c-1.8-2.7-3.2-5.7-4.1-9s-1.3-6.9-1.3-10.9c0-10.5,3.2-18.6,9.5-24.3
		c6.3-5.7,15.1-8.6,26.2-8.6c19.9,0,30,11.8,30.1,35.4l-25.8,2.6c0-3.2,0-5.6-0.1-7.1c-0.1-1.6-0.3-3.2-0.6-4.9
		c-0.3-1.7-0.9-2.9-1.6-3.5c-0.8-0.7-1.8-1-3-1c-1.8,0-3.2,1-4.1,2.9s-1.4,3.7-1.4,5.6c0,1,0.1,2,0.3,3c0.2,1,0.3,1.8,0.5,2.6
		c0.1,0.8,0.5,1.6,1,2.5s0.9,1.6,1.1,2.2c0.2,0.5,0.7,1.2,1.5,2.1s1.2,1.5,1.5,1.8c0.2,0.3,0.8,1,1.8,1.8c0.9,0.9,1.5,1.4,1.7,1.6
		s0.8,0.7,1.9,1.7s1.7,1.5,1.8,1.6l7,6.2c3,2.7,5.5,5.2,7.6,7.5s4.1,5,6,8.1s3.3,6.4,4.3,10s1.4,7.5,1.4,11.6c0,8.7-3,16.1-9,22
		C367.9,398.5,360,401.5,350.3,401.5z"/>
	<linearGradient id="SVGID_13_" gradientUnits="userSpaceOnUse" x1="404" y1="338.85" x2="469.1" y2="338.85">
		<stop  offset="0" style="stop-color:#F5A833"/>
		<stop  offset="1" style="stop-color:#F5A833"/>
	</linearGradient>
	<path class="st12" d="M421.7,399.6v-99.5H404v-22h65.1v22h-17.7v99.5H421.7z"/>
	<linearGradient id="SVGID_14_" gradientUnits="userSpaceOnUse" x1="494.9" y1="338.85" x2="552" y2="338.85">
		<stop  offset="0" style="stop-color:#F5A833"/>
		<stop  offset="1" style="stop-color:#F5A833"/>
	</linearGradient>
	<path class="st13" d="M494.9,399.6V278.1h56.8V298h-27.1v27.1h20.2v20.7h-20.2v33.9H552v19.8h-57.1V399.6z"/>
	<linearGradient id="SVGID_15_" gradientUnits="userSpaceOnUse" x1="578.8" y1="338.85" x2="656.4" y2="338.85">
		<stop  offset="0" style="stop-color:#F5A833"/>
		<stop  offset="1" style="stop-color:#F5A833"/>
	</linearGradient>
	<path class="st14" d="M578.8,399.6V278.1h29.7v47.3l18.4-47.3h29.2l-22,55.2l22.3,66.3h-30.5L610.1,347l-1.5,1.9v50.7H578.8z"/>
</g>
</svg>
