<?xml version="1.0" encoding="utf-8"?>
<!-- Generator: Adobe Illustrator 23.0.3, SVG Export Plug-In . SVG Version: 6.00 Build 0)  -->
<svg version="1.1" id="Calque_1" xmlns="http://www.w3.org/2000/svg" xmlns:xlink="http://www.w3.org/1999/xlink" x="0px" y="0px"
	 viewBox="0 0 798 454" style="enable-background:new 0 0 798 454;" xml:space="preserve">
<style type="text/css">
	.st0{fill:#F5A833;enable-background:new    ;}
</style>
<path class="st0" d="M36.4,149l49-10.5v41h36v42h-37V294c0,0-0.5,26,37,15v38.5c0,0-21,14-63,0c0,0-19.3-14.4-22-39.3
	S36.4,149,36.4,149z"/>
<path class="st0" d="M137.4,181v172.7h49V235.5c0,0,18-20,36-8.5v-46.8c0,0-9.8-5.3-27.3,0.7c0,0-11,6-13.4,13.5l-2.4-14.6
	l-41.9,0.2V181z"/>
<rect x="235.1" y="180.7" class="st0" width="48.7" height="173.1"/>
<polygon class="st0" points="235.1,165 283.8,154.3 283.8,114.7 235.1,125.3 "/>
<path class="st0" d="M438.9,209.8c0,0-13.3-25.8-44.8-31.8s-46.3,14.5-46.3,14.5L345,194v-79.4L300.4,125v228.7h51.3v-11
	c19.5,13.3,40.3,12,40.3,12c33.8-7,41.8-24.3,41.8-24.3s11.8-11,18-50S438.9,209.8,438.9,209.8z M387.1,307.6c-21,11-36-5-36-5
	v-72.3c0,0,6-10.3,25.6-9.7c19.6,0.6,27.1,32.3,27.1,32.3S408.1,296.6,387.1,307.6z"/>
<path class="st0" d="M603.5,239c-6-43.3-42-58.3-42-58.3s-47-15.4-78,19c-31,34.4-20.7,87.7-20.7,87.7s4.7,44.3,46,61
	c41.4,16.7,87.7-7,87.7-7l-0.3-38.3c-28,11-40,11.3-62.7,8.5c-22.7-2.8-22.7-27.9-22.7-27.9h95C608.8,254.7,603.4,239,603.5,239z
	 M509.9,247.5v-1c0,0-1.2-27.7,24-29.7c25.2-2,26,30.7,26,30.7H509.9z"/>
</svg>
